<?xml version="1.0" encoding="UTF-8"?>
<svg id="_レイヤー_2" data-name="レイヤー 2" xmlns="http://www.w3.org/2000/svg" viewBox="0 0 341.14 117.07">
  <defs>
    <style>
      .cls-1 {
        fill: #202121;
      }

      .cls-2 {
        fill: #f7f7f7;
      }
    </style>
  </defs>
  <g id="_レイヤー_1-2" data-name="レイヤー 1">
    <rect class="cls-2" width="341.14" height="117.07"/>
    <g>
      <path class="cls-1" d="M86.8,22.19c-2.26-1.95-6.12-1.19-8.61,1.7-2.49,2.89-2.68,6.82-.42,8.77,2.26,1.95,6.12,1.19,8.61-1.7,2.49-2.89,2.68-6.82.42-8.77Z"/>
      <path class="cls-1" d="M68.27,48.78c5.7-7.57,7.77-14.07,5.7-17.13-3.3-4.89-18.62-3.19-35.96,6.01,1.65,2.76,3.29,5.52,4.94,8.29,9.34-6.23,16.98-9.86,19.92-9.54,4.17.46.67,9.06-10.54,21.4l-19.28,18.65,10.96-6.47,23.89-14.1c4.08,2.03-3.47,17.18-22.64,45.44v.13c26.07-32.36,37.25-50.48,33.54-54.36-1.4-1.46-4.92-.9-10.55,1.69Z"/>
    </g>
    <g>
      <path class="cls-1" d="M105.82,57.65c-.41,8.78-3.32,14.44-8.72,16.99v-5.2c2.53-2.33,3.92-6.26,4.17-11.8h4.55ZM126,55.29h-11.86v20.75h-4.79v-20.75h-11.76v-4.44h11.76v-4.21h4.79v4.21h11.86v4.44ZM126.58,74.65c-5.58-2.58-8.57-8.24-8.96-16.99h4.72c.25,5.54,1.66,9.47,4.24,11.8v5.2ZM122.06,49.72h-2.97v-4.89h2.97v4.89ZM126.37,49.72h-2.94v-4.89h2.94v4.89Z"/>
      <path class="cls-1" d="M159.95,62.2h-27.97v-4.68h27.97v4.68Z"/>
      <path class="cls-1" d="M175.19,56.49c0,5.67-.87,10.15-2.6,13.44-1.39,2.64-3.56,4.82-6.5,6.53v-5.57c1.37-1.34,2.37-2.87,3.01-4.58.84-2.33,1.26-5.47,1.26-9.44v-9.2h4.82v8.82ZM195.54,56.36c-.57,11.99-6.17,18.37-16.79,19.15v-27.83h4.75v21.75c2.23-.73,3.98-2.34,5.23-4.82,1.14-2.23,1.81-4.98,2.02-8.24h4.79Z"/>
      <path class="cls-1" d="M209.32,64.18c-.66.27-1.52.58-2.56.92v7.38c0,1.57-.32,2.67-.96,3.28-.55.55-1.47.82-2.77.82h-2.63l-1.13-4.21h1.67c.57,0,.95-.09,1.15-.27.19-.18.29-.58.29-1.2v-4.58c-1,.23-2.05.43-3.15.62l-.86-4.41c1.23-.18,2.56-.42,4-.72v-5.23h-3.32v-4.27h3.32v-6.05h4.38v6.05h3.01v3.32h4.14c-.27-.91-.7-2.03-1.26-3.35h-2.22v-3.73h6.87v-2.5h4.44v2.5h7.42v3.73h-2.53c-.37,1.16-.79,2.28-1.27,3.35h4.51v3.86h-9.37c-.16.46-.41,1.16-.75,2.12h10.15v3.79h-3.45c-.64,2.07-1.52,3.82-2.63,5.23,2.05.98,3.9,1.95,5.54,2.91l-3.66,3.28c-1.76-1.23-3.48-2.33-5.16-3.28-2.26,1.46-5.16,2.5-8.72,3.11l-2.73-3.73c3.05-.39,5.42-.91,7.11-1.57-1.53-.71-3.07-1.34-4.62-1.91.71-1.25,1.38-2.6,2.02-4.04h-4.27v-1.23ZM206.75,60.73c1-.3,1.99-.64,2.97-1.03v1.91h5.4c.23-.64.47-1.34.72-2.12h-6.33v-2.91h-2.77v4.14ZM219.98,68.9c.87-.93,1.5-2.1,1.91-3.49h-3.73c-.34.8-.71,1.56-1.09,2.29.98.39,1.95.79,2.91,1.2ZM217.25,52.29c.39.94.75,2.05,1.09,3.35h2.46c.48-.98.91-2.1,1.3-3.35h-4.85Z"/>
      <path class="cls-1" d="M264.02,62.89h-4.51v-4.31h-21.95v4.31h-4.51v-7.83h5.13v-8.51h21.16v8.51h4.68v7.83ZM258.79,72.49c0,1.6-.3,2.67-.91,3.21-.6.55-1.65.82-3.13.82h-4.62l-1.03-3.56h3.52c.55,0,.92-.07,1.13-.22.21-.15.31-.47.31-.97v-.55h-11.04v5.37h-4.75v-16.86h20.51v12.75ZM254.82,51.26v-1.06h-12.14v4.85h2.6v-3.79h9.54ZM254.07,64.01v-1.33h-11.04v1.33h11.04ZM254.07,68.18v-1.3h-11.04v1.3h11.04ZM254.82,55.06v-1.3h-5.68v1.3h5.68Z"/>
      <path class="cls-1" d="M286.69,65.31c-.32,2.76-.91,4.99-1.78,6.7-.91,1.82-2.33,3.44-4.24,4.86l-3.66-2.91c1.94-1.18,3.34-2.53,4.21-4.03.75-1.34,1.24-3.13,1.47-5.37h-3.52c.05.34.07.74.07,1.2,0,2.23-.48,3.78-1.44,4.65-.84.8-2.25,1.19-4.21,1.16l-.96-3.08v8h-4.14v-29.81h10.91v2.22h6.91v-2.97h4.41v2.97h7.11v7.15h-2.74v2.5h-13.2v-2.5h-2.63v-5.85l-2.36,7.76c1.03,1.96,1.72,3.85,2.09,5.68v-2.97h19.08v3.9h-5.64v6.87c0,.32.02.51.07.58.07.14.25.21.55.21h.27c.43,0,.7-.23.79-.68.09-.46.14-1.81.14-4.07l3.83.99c0,2.55-.09,4.33-.27,5.33-.21,1.09-.62,1.81-1.23,2.15-.48.27-1.39.41-2.74.41h-2.5c-1.23,0-2.05-.21-2.44-.62-.4-.41-.6-1.28-.6-2.6v-8.58h-4.86l3.25.75ZM272.63,67.4c.84,0,1.44-.09,1.78-.27.55-.3.82-.91.82-1.85,0-1.53-.68-3.83-2.05-6.91l1.88-7.62h-2.43v16.65ZM283.44,54.78h10.22v-1.95h-10.22v1.95Z"/>
    </g>
    <g>
      <path class="cls-1" d="M212.61,90.83v-8.09c0-.09.05-.15.15-.15h2.88c2,0,2.91.92,2.91,2.16,0,.82-.4,1.52-1.16,1.82,1.05.29,1.58,1.04,1.58,2,0,1.46-.96,2.39-3.23,2.39h-2.98c-.09,0-.15-.05-.15-.15ZM216.96,85.01c0-.63-.51-.97-1.39-.97h-1.42v1.94h1.42c.89,0,1.39-.34,1.39-.97ZM217.36,88.45c0-.7-.55-1.08-1.57-1.08h-1.64v2.17h1.64c1.02,0,1.57-.39,1.57-1.1Z"/>
      <path class="cls-1" d="M219.96,88.03c0-1.8,1.23-3.08,3.13-3.08s3.13,1.28,3.13,3.08-1.23,3.07-3.13,3.07-3.13-1.28-3.13-3.07ZM223.09,89.75c.95,0,1.6-.71,1.6-1.72s-.65-1.73-1.6-1.73-1.6.71-1.6,1.73.65,1.72,1.6,1.72Z"/>
      <path class="cls-1" d="M227.09,88.03c0-1.82,1.08-3.08,2.76-3.08.78,0,1.43.31,1.87.83v-3.22c0-.1.05-.15.15-.15h1.18c.09,0,.16.05.16.15v8.27c0,.1-.06.15-.16.15h-1.07c-.09,0-.16-.04-.16-.15l-.04-.66c-.42.58-1.11.93-1.93.93-1.69,0-2.76-1.25-2.76-3.07ZM230.22,89.75c.95,0,1.6-.71,1.6-1.72s-.65-1.73-1.6-1.73-1.6.71-1.6,1.73.65,1.72,1.6,1.72Z"/>
      <path class="cls-1" d="M235.52,93.3l1.09-2.7-2.37-5.37s-.02-.05-.02-.07c0-.05.05-.1.14-.1h1.41c.08,0,.14.03.17.12l1.45,3.63,1.4-3.63c.03-.08.09-.12.17-.12h1.31c.09,0,.16.07.11.17l-3.31,8.12c-.03.08-.08.12-.17.12h-1.24c-.11,0-.15-.06-.12-.17Z"/>
      <path class="cls-1" d="M244.51,90.81l3.34-8.1c.03-.08.09-.12.17-.12h1.07c.08,0,.14.03.17.12l3.35,8.1s.01.04.01.06c0,.06-.04.1-.13.1h-1.44c-.07,0-.14-.03-.17-.12l-.59-1.56h-3.48l-.6,1.56c-.03.08-.08.12-.17.12h-1.41c-.11,0-.17-.06-.12-.17ZM249.74,87.87l-1.2-3.17-1.2,3.17h2.4Z"/>
      <path class="cls-1" d="M253.77,90.83v-8.09c0-.09.05-.15.15-.15h1.25c.08,0,.15.05.15.15v6.76h4.04c.09,0,.15.06.15.15v1.18c0,.1-.05.15-.15.15h-5.43c-.09,0-.15-.05-.15-.15Z"/>
      <path class="cls-1" d="M260.77,90.83v-8.09c0-.09.05-.15.15-.15h1.25c.08,0,.15.05.15.15v6.76h4.04c.09,0,.15.06.15.15v1.18c0,.1-.05.15-.15.15h-5.43c-.09,0-.15-.05-.15-.15Z"/>
      <path class="cls-1" d="M270.92,88.03c0-1.82,1.18-3.08,3.03-3.08,1.33,0,2.26.55,2.69,1.72,0,.02,0,.04,0,.05,0,.06-.04.12-.12.14l-.98.28h-.05c-.05.01-.11-.03-.15-.09-.26-.5-.7-.75-1.31-.75-1.08,0-1.59.79-1.59,1.73s.52,1.72,1.59,1.72c.61,0,1.08-.26,1.32-.79.05-.07.12-.12.2-.08l1.09.26c.08.02.13.08.08.18-.46,1.22-1.47,1.78-2.77,1.78-1.87,0-3.04-1.25-3.04-3.07Z"/>
      <path class="cls-1" d="M277.52,88.03c0-1.82,1.08-3.08,2.76-3.08.82,0,1.51.35,1.93.93l.04-.66c0-.11.06-.15.16-.15h1.07c.09,0,.16.05.16.15v5.62c0,.1-.06.15-.16.15h-1.07c-.09,0-.16-.04-.16-.15l-.04-.66c-.42.58-1.11.93-1.93.93-1.69,0-2.76-1.25-2.76-3.07ZM280.65,89.75c.95,0,1.6-.71,1.6-1.72s-.65-1.73-1.6-1.73-1.6.71-1.6,1.73.65,1.72,1.6,1.72Z"/>
      <path class="cls-1" d="M285.19,90.83v-5.62c0-.1.05-.15.15-.15h1.08c.08,0,.16.04.16.15l.03.74c.4-.63,1.1-.97,1.8-.97.17,0,.29.02.4.04.09.02.13.07.13.16v1.17c0,.09-.05.13-.13.13-.16,0-.34-.04-.58-.04-.8,0-1.56.55-1.56,1.49v2.91c0,.1-.05.15-.15.15h-1.18c-.09,0-.15-.05-.15-.15Z"/>
      <path class="cls-1" d="M289.49,88.03c0-1.8,1.13-3.08,2.99-3.08s2.86,1.35,2.79,3.38c-.01.1-.06.15-.16.15h-4.05c.14.81.63,1.3,1.42,1.3.6,0,1.02-.22,1.3-.67.05-.07.12-.08.2-.06l1.01.35c.1.04.13.11.08.2-.53,1.03-1.51,1.51-2.6,1.51-1.87,0-2.99-1.28-2.99-3.07ZM292.47,86.27c-.7,0-1.2.4-1.38,1.11h2.6c-.14-.7-.59-1.11-1.22-1.11Z"/>
      <path class="cls-1" d="M296.1,90.19c0-.53.4-.9.93-.9s.93.37.93.9-.4.91-.93.91-.93-.38-.93-.91Z"/>
    </g>
    <g>
      <path class="cls-1" d="M148.44,33.15h-1.53v.18c0,1.61-.41,2.83-1.22,3.66-.84.86-2.14,1.33-3.91,1.42v-1.25c1.37-.11,2.36-.49,2.96-1.13.53-.56.8-1.4.8-2.5v-.38h-3.07v2.4h-1.35v-2.4h-1.52v-1.25h1.52v-1.66h1.35v1.66h3.07v-1.66h1.38v1.66h1.53v1.25Z"/>
      <path class="cls-1" d="M152.97,34.98h-1.33c-.16-1.12-.42-2.25-.77-3.39h1.27c.34,1.02.61,2.16.83,3.39ZM157.93,31.7c0,2.05-.48,3.62-1.43,4.72-.89,1.04-2.25,1.7-4.07,1.97v-1.25c1.51-.31,2.58-.91,3.22-1.81.58-.82.88-2.04.88-3.64v-.14h1.4v.15ZM155.36,34.9h-1.34c-.16-1.11-.4-2.24-.72-3.39h1.27c.29.89.55,2.02.79,3.39Z"/>
      <path class="cls-1" d="M168.65,36.06c0,.75-.17,1.3-.51,1.65s-.88.52-1.61.52h-1.75v-1.29h1.44c.36,0,.61-.08.76-.23s.22-.4.22-.75v-3.06h-2.5c-.08,1.42-.49,2.62-1.22,3.59-.66.88-1.51,1.49-2.55,1.85v-1.39c1.52-.86,2.31-2.2,2.36-4.05h-2.36v-1.26h2.36v-1.48h1.42v1.48h3.94v4.43Z"/>
      <path class="cls-1" d="M179.35,34.52h-7.96v-1.33h7.96v1.33Z"/>
      <path class="cls-1" d="M182.91,37.76c-.38.36-.8.69-1.25,1.01l-.35-1.4c.46-.29.86-.58,1.2-.88v-1.86h-1.06v-1.22h2.25v3.23c.08.36.31.59.71.68l-.48-.59c.76-.17,1.37-.38,1.85-.64h-1.82v-.95h1.32v-.45h-1.14v-.91h1.14v-.31h-.45c-.27,0-.44-.04-.53-.13-.09-.08-.13-.27-.13-.56v-1.33h1.41v-.37h-1.42v-.96h2.6v2.07l.28.07c0,.4-.04.68-.13.87-.08.18-.24.29-.46.33v.33h1.11v-.33c-.17-.03-.29-.11-.35-.24-.04-.09-.06-.24-.06-.46v-1.3h1.39v-.37h-1.4v-.96h2.58v2l.4.08c0,.47-.06.79-.17.97-.13.2-.36.3-.7.3h-.51v.31h1.15v.91h-1.15v.45h1.34v.95h-1.91c.47.25,1.1.47,1.88.64l-.52.65h.79l-.29,1.1h-5.28c-.88,0-1.49-.24-1.85-.73ZM183.83,31.58l-.91.88c-.42-.54-.88-1.03-1.38-1.47l.88-.87c.51.41.98.89,1.42,1.46ZM186.02,32.23h-.81v.24c0,.08.01.13.03.15.02.02.07.02.15.02h.35c.16,0,.25-.14.27-.42ZM186.81,36.57c-.48.34-.98.61-1.5.82h3.37c-.53-.21-1.04-.49-1.53-.82l.64-.48h-1.62l.64.48ZM187.57,35.14v-.45h-1.11v.45h1.11ZM189.05,32.23h-.8v.24c0,.08.01.13.03.15.02.02.07.02.15.02h.35c.16,0,.25-.14.26-.42Z"/>
      <path class="cls-1" d="M200.76,35.83h-3.72v1.25c0,.63-.09,1.03-.28,1.21-.19.17-.58.26-1.17.26h-1.47l-.38-1.22h1.38c.24,0,.39-.03.46-.09.06-.06.1-.21.1-.45v-.95h-3.82v-1.2h3.82v-.88h-3.23v-1.17h3.23v-.91c-.88.07-1.78.13-2.7.17l-.6-1.21c2.67-.06,4.9-.27,6.67-.62l.83,1.13c-.94.17-1.88.3-2.83.41v1.03h3.11v1.17h-3.11v.88h3.72v1.2Z"/>
      <path class="cls-1" d="M208.94,34.35c0,1.44-.17,2.46-.52,3.06-.35.6-.93.9-1.75.9-.51,0-1-.09-1.45-.26v-1.32c.49.18.92.27,1.27.27.4,0,.68-.22.85-.66.16-.42.24-1.08.24-1.99,0-.59-.07-.97-.2-1.15s-.41-.27-.84-.27h-.97c-.36,1.82-.84,3.6-1.44,5.36h-1.53c.71-1.66,1.25-3.45,1.62-5.36h-1.58v-1.24h1.78c.08-.52.14-1.02.19-1.48h1.4c-.06.44-.13.93-.22,1.48h.89c.84,0,1.41.15,1.71.46.36.37.54,1.1.54,2.2ZM209.39,31.18h-.85v-1.39h.85v1.39ZM211.34,35.31h-1.39c-.14-1.49-.53-2.76-1.15-3.8h1.48c.56,1.09.91,2.36,1.06,3.8ZM210.61,31.18h-.85v-1.39h.85v1.39Z"/>
      <path class="cls-1" d="M214.32,37.76c-.41.38-.82.71-1.24,1.01l-.35-1.4c.46-.29.86-.58,1.2-.88v-1.84h-1.06v-1.23h2.25v3.24c.11.49.54.73,1.28.73h5.36l-.29,1.11h-5.29c-.88,0-1.5-.25-1.86-.75ZM215.26,31.59l-.91.88c-.42-.54-.88-1.03-1.38-1.47l.88-.87c.51.41.98.89,1.42,1.46ZM221.34,36.08c0,.42-.07.7-.22.84-.15.14-.44.21-.88.21h-.63l-.3-.95h.52c.12,0,.2-.02.23-.05.04-.03.06-.1.06-.21v-.23h-1.15v1.17h-1.13v-1.17h-1.1v1.46h-1.18v-5.01h1.76c-.21-.16-.47-.34-.76-.53l1.03-.46h-1.68v-1.03h5.08v.96c-.24.21-.68.56-1.33,1.06h1.67v3.95ZM217.85,33.54v-.51h-1.1v.51h1.1ZM217.85,34.85v-.51h-1.1v.51h1.1ZM217.61,31.14c.32.23.62.46.88.67.33-.25.62-.47.86-.67h-1.74ZM220.12,33.54v-.51h-1.15v.51h1.15ZM220.12,34.85v-.51h-1.15v.51h1.15Z"/>
      <path class="cls-1" d="M231.49,34.75c0,2.29-2.15,3.47-6.46,3.53v-1.28c1.48-.03,2.65-.2,3.51-.53,1-.38,1.51-.94,1.51-1.68,0-.78-.68-1.18-2.05-1.18-1.23,0-2.65.21-4.24.63v-1.33c1.62-.38,3.1-.56,4.42-.56,1.04,0,1.84.19,2.4.58.6.41.9,1.01.9,1.82ZM230.28,31.86c-1.17-.11-3.02-.17-5.53-.17v-1.26c2.58,0,4.42.04,5.53.11v1.32Z"/>
      <path class="cls-1" d="M236.68,35.08c-.19.08-.43.17-.73.26v2.1c0,.45-.09.76-.27.93-.16.16-.42.23-.79.23h-.75l-.32-1.2h.48c.16,0,.27-.03.33-.08.06-.05.08-.17.08-.34v-1.3c-.29.07-.58.12-.89.18l-.24-1.25c.35-.05.73-.12,1.14-.2v-1.49h-.94v-1.22h.94v-1.72h1.25v1.72h.86v.94h1.18c-.08-.26-.2-.58-.36-.95h-.63v-1.06h1.96v-.71h1.26v.71h2.11v1.06h-.72c-.1.33-.22.65-.36.95h1.28v1.1h-2.67c-.04.13-.12.33-.21.6h2.89v1.08h-.98c-.18.59-.43,1.09-.75,1.49.58.28,1.11.55,1.58.83l-1.04.93c-.5-.35-.99-.66-1.47-.93-.64.42-1.47.71-2.48.88l-.78-1.06c.87-.11,1.54-.26,2.02-.45-.43-.2-.87-.38-1.31-.54.2-.36.39-.74.57-1.15h-1.21v-.35ZM235.95,34.1c.29-.08.57-.18.85-.29v.54h1.54c.06-.18.13-.38.2-.6h-1.8v-.83h-.79v1.18ZM239.71,36.43c.25-.27.43-.6.54-.99h-1.06c-.1.23-.2.44-.31.65.28.11.55.22.83.34ZM238.93,31.7c.11.27.21.58.31.95h.7c.14-.28.26-.6.37-.95h-1.38Z"/>
      <path class="cls-1" d="M252.97,34.72h-1.28v-1.23h-6.24v1.23h-1.28v-2.23h1.46v-2.42h6.02v2.42h1.33v2.23ZM251.48,37.45c0,.45-.09.76-.26.91-.17.16-.47.23-.89.23h-1.31l-.29-1.01h1c.16,0,.26-.02.32-.06.06-.04.09-.13.09-.28v-.16h-3.14v1.53h-1.35v-4.79h5.83v3.63ZM250.35,31.41v-.3h-3.45v1.38h.74v-1.08h2.71ZM250.14,35.04v-.38h-3.14v.38h3.14ZM250.14,36.22v-.37h-3.14v.37h3.14ZM250.35,32.49v-.37h-1.61v.37h1.61Z"/>
      <path class="cls-1" d="M260.14,35.41c-.09.78-.26,1.42-.51,1.91-.26.52-.66.98-1.21,1.38l-1.04-.83c.55-.34.95-.72,1.2-1.15.21-.38.35-.89.42-1.53h-1c.01.1.02.21.02.34,0,.64-.14,1.08-.41,1.32-.24.23-.64.34-1.2.33l-.27-.88v2.28h-1.18v-8.48h3.1v.63h1.96v-.85h1.25v.85h2.02v2.03h-.78v.71h-3.75v-.71h-.75v-1.66l-.67,2.21c.29.56.49,1.1.59,1.61v-.85h5.43v1.11h-1.6v1.95c0,.09,0,.15.02.17.02.04.07.06.16.06h.08c.12,0,.2-.06.22-.19.03-.13.04-.52.04-1.16l1.09.28c0,.73-.03,1.23-.08,1.52-.06.31-.18.51-.35.61-.14.08-.4.12-.78.12h-.71c-.35,0-.58-.06-.7-.18-.11-.12-.17-.36-.17-.74v-2.44h-1.38l.92.21ZM256.15,36c.24,0,.41-.03.5-.08.16-.08.23-.26.23-.53,0-.43-.2-1.09-.58-1.96l.54-2.17h-.69v4.74ZM259.22,32.41h2.91v-.55h-2.91v.55Z"/>
    </g>
    <rect class="cls-1" x="97.04" y="86.58" width="107.67" height="1.63"/>
  </g>
</svg>